<svg xmlns="http://www.w3.org/2000/svg" viewBox="0 0 30 30"><path d="M29.372 12.438c-.675-.468-2.222-.644-3.432-.41-.14-1.17-.788-2.195-1.913-3.103l-.647-.469-.45.674c-.563.878-.844 2.108-.76 3.279.029.41.17 1.142.591 1.786-.394.234-1.21.527-2.278.527H.145l-.057.234c-.197 1.171-.197 4.83 2.11 7.642 1.744 2.137 4.332 3.22 7.736 3.22 7.37 0 12.827-3.543 15.387-9.954 1.013.029 3.179 0 4.276-2.196.028-.059.084-.176.281-.615l.113-.234zM16.404 4.182h-3.095V7.11h3.095zm0 3.513h-3.095v2.928h3.095zm-3.657 0H9.653v2.928h3.094zm-3.657 0H5.996v2.928H9.09zM5.433 11.21H2.339v2.927h3.094zm3.657 0H5.996v2.927H9.09zm3.657 0H9.653v2.927h3.094zm3.657 0h-3.095v2.927h3.095zm3.657 0h-3.095v2.927h3.095z" fill="#0db7ed"/></svg>