<svg xmlns="http://www.w3.org/2000/svg" version="1.0" width="480" height="480"><path d="M394.086 0C294.231 0 275.5 142.226 331.673 142.226 387.84 142.226 493.946 0 394.086 0zM228.278 124.603c29.91 1.826 62.726-114.143 6.51-106.85-56.194 7.294-36.432 105.023-6.51 106.85zM91.203 196.664c21.272-9.364 2.74-100.952-33.433-75.974-36.156 24.982 12.16 85.333 33.433 75.974zm59.937-47.94c25.323-5.162 26.711-109.037-18.448-90.402-45.167 18.638-6.855 95.573 18.448 90.402zM283.373 381.18c4.493 34.313-25.173 51.258-54.226 29.138-92.49-70.417 153.136-105.547 136.946-201.75-13.44-79.854-258.452-55.27-286.353 69.679C60.855 362.756 157.48 480 258.302 480c49.599 0 106.808-44.785 117.511-101.52 8.175-43.263-96.19-25.928-92.44 2.7z"/></svg>